<svg width="10" height="10" viewBox="0 0 10 10" fill="none" xmlns="http://www.w3.org/2000/svg">
<path d="M5 8.75008C4.47372 8.30118 3.98591 7.80905 3.54166 7.27883C2.875 6.48258 2.08333 5.29675 2.08333 4.16675C2.08274 2.98656 2.79343 1.92233 3.88377 1.47066C4.97412 1.019 6.22919 1.26893 7.06333 2.10383C7.61185 2.64992 7.91913 3.39274 7.91668 4.16675C7.91668 5.29675 7.125 6.48258 6.45833 7.27883C6.01409 7.80905 5.52627 8.30118 5 8.75008ZM5 2.91675C4.55341 2.91675 4.14076 3.155 3.91746 3.54175C3.69417 3.9285 3.69417 4.405 3.91746 4.79175C4.14076 5.1785 4.55341 5.41675 5 5.41675C5.69035 5.41675 6.25 4.8571 6.25 4.16675C6.25 3.47639 5.69035 2.91675 5 2.91675Z" fill="#79819A"/>
</svg>
