<svg width="10" height="10" viewBox="0 0 10 10" fill="none" xmlns="http://www.w3.org/2000/svg">
<path d="M3.52708 8.55615C2.68451 8.55615 1.9249 8.0486 1.60241 7.27019C1.27992 6.49178 1.45805 5.59576 2.05374 4.99989L2.93791 4.11572L3.52708 4.70489L2.64333 5.58864C2.32752 5.90444 2.20418 6.36474 2.31978 6.79615C2.43537 7.22755 2.77233 7.56451 3.20373 7.6801C3.63514 7.7957 4.09544 7.67236 4.41124 7.35655L5.29499 6.4728L5.88416 7.06239L5.00041 7.94614C4.61044 8.33803 4.07993 8.55767 3.52708 8.55615ZM3.82166 6.76739L3.23249 6.17822L6.17874 3.23197L6.76791 3.82114L3.82208 6.76697L3.82166 6.76739ZM7.06291 5.88364L6.47333 5.29447L7.35708 4.41072C7.67719 4.09586 7.80383 3.6335 7.68884 3.19946C7.57386 2.76543 7.23492 2.42641 6.80091 2.31132C6.36691 2.19624 5.90452 2.32277 5.58958 2.6428L4.70541 3.52655L4.11624 2.93739L5.00041 2.05322C5.81503 1.24571 7.12915 1.24858 7.94022 2.05966C8.7513 2.87073 8.75418 4.18485 7.94666 4.99947L7.06291 5.88322V5.88364Z" fill="#79819A"/>
</svg>
