<svg width="10" height="10" viewBox="0 0 10 10" fill="none" xmlns="http://www.w3.org/2000/svg">
<path d="M7.91563 8.33341C4.36078 8.33845 1.66287 5.6082 1.66668 2.08446C1.66668 1.85434 1.85322 1.66675 2.08334 1.66675H3.18307C3.38956 1.66675 3.56498 1.81847 3.5953 2.02272C3.66797 2.51225 3.81049 2.98882 4.01854 3.43787L4.06136 3.53029C4.12089 3.65879 4.08054 3.81147 3.96529 3.89378C3.62471 4.13699 3.49456 4.62656 3.75988 5.00856C4.09283 5.48793 4.51253 5.90754 4.99178 6.24034C5.37376 6.50559 5.86325 6.37545 6.10647 6.03493C6.18883 5.91962 6.34159 5.87925 6.47017 5.93881L6.56216 5.98142C7.01125 6.18945 7.48786 6.33199 7.97743 6.40464C8.18169 6.43496 8.33334 6.61036 8.33334 6.81686V7.91674C8.33334 8.14686 8.14634 8.33341 7.91622 8.33341L7.91563 8.33341Z" fill="#79819A"/>
</svg>
