<svg width="6" height="7" viewBox="0 0 6 7" fill="none" xmlns="http://www.w3.org/2000/svg">
<path d="M3 5.74995C2.68423 5.48061 2.39155 5.18533 2.125 4.8672C1.725 4.38945 1.25 3.67795 1.25 2.99995C1.24965 2.29184 1.67606 1.6533 2.33027 1.3823C2.98447 1.1113 3.73752 1.26126 4.238 1.7622C4.56712 2.08985 4.75148 2.53555 4.75001 2.99995C4.75001 3.67795 4.275 4.38945 3.875 4.8672C3.60845 5.18533 3.31577 5.48061 3 5.74995ZM3 2.24995C2.73205 2.24995 2.48446 2.3929 2.35048 2.62495C2.21651 2.857 2.21651 3.1429 2.35048 3.37495C2.48446 3.607 2.73205 3.74995 3 3.74995C3.41421 3.74995 3.75 3.41416 3.75 2.99995C3.75 2.58574 3.41421 2.24995 3 2.24995Z" fill="#79819A"/>
</svg>
