<svg width="8" height="8" viewBox="0 0 8 8" fill="none" xmlns="http://www.w3.org/2000/svg">
<g clip-path="url(#clip0_354_4754)">
<path d="M3.04532 7.125C2.52504 7.12902 2.05898 6.80389 1.88314 6.31421C1.7073 5.82452 1.86006 5.27718 2.26407 4.94934C1.97751 4.7174 1.81102 4.36846 1.81102 3.9998C1.81102 3.63114 1.97751 3.2822 2.26407 3.05027C1.85993 2.72253 1.70708 2.17516 1.88295 1.68545C2.05883 1.19574 2.52501 0.870685 3.04532 0.874919H4.9547C5.47502 0.870685 5.9412 1.19574 6.11707 1.68545C6.29295 2.17516 6.1401 2.72253 5.73595 3.05027C6.13997 3.37812 6.29273 3.92546 6.11689 4.41515C5.94104 4.90483 5.47499 5.22996 4.9547 5.2259C4.71438 5.22619 4.47922 5.15624 4.27814 5.02465V5.89965C4.27521 6.57808 3.72376 7.12617 3.04532 7.125ZM3.03845 5.22621C2.6683 5.23206 2.37242 5.53582 2.3763 5.90599C2.38018 6.27616 2.68237 6.57366 3.05256 6.57175C3.42275 6.56982 3.72184 6.26921 3.72189 5.89902V5.22621H3.03814H3.03845ZM4.95501 3.32715C4.58388 3.32904 4.28438 3.63111 4.28564 4.00224C4.2869 4.37337 4.58845 4.67339 4.95959 4.67276C5.33072 4.67213 5.63126 4.3711 5.63126 3.99996C5.62988 3.62748 5.32718 3.32646 4.9547 3.32715H4.95501ZM3.04564 3.32714C2.80526 3.32586 2.58247 3.45291 2.46117 3.66044C2.33987 3.86797 2.3385 4.12444 2.45757 4.33325C2.57665 4.54206 2.79808 4.67149 3.03845 4.67277H3.72189V3.32714H3.04564ZM4.27814 1.42809V2.77403H4.95439C5.31611 2.77571 5.61455 2.49134 5.63032 2.12996V2.2659V2.1009C5.62878 1.72886 5.32674 1.42809 4.9547 1.42809H4.27814ZM3.04501 1.42809C2.80464 1.42809 2.58253 1.55632 2.46234 1.76449C2.34215 1.97266 2.34215 2.22914 2.46234 2.4373C2.58253 2.64547 2.80464 2.77371 3.04501 2.77371H3.72189V1.42809H3.04501Z" fill="#516CF7"/>
</g>
<defs>
<clipPath id="clip0_354_4754">
<rect width="7.5" height="7.5" fill="white" transform="translate(0.25 0.25)"/>
</clipPath>
</defs>
</svg>
