<svg width="10" height="11" viewBox="0 0 10 11" fill="none" xmlns="http://www.w3.org/2000/svg">
<path d="M8.33126 3.28662C8.70477 3.06333 8.98425 2.71172 9.11751 2.29745C8.76653 2.50571 8.38252 2.6524 7.98209 2.7312C7.42692 2.14392 6.5473 2.00101 5.83476 2.38231C5.12221 2.76362 4.75313 3.57474 4.93376 4.36245C3.49609 4.29028 2.15666 3.61117 1.24876 2.49412C0.77494 3.31138 1.01707 4.35611 1.80209 4.88162C1.51822 4.8725 1.24064 4.79564 0.992506 4.65745C0.992506 4.66495 0.992506 4.67245 0.992506 4.67995C0.992671 5.53127 1.59266 6.26457 2.42709 6.43329C2.16378 6.50492 1.88759 6.51547 1.61959 6.46412C1.85426 7.19215 2.52524 7.69091 3.29001 7.70579C2.6566 8.20293 1.87437 8.47252 1.06917 8.4712C0.926453 8.47141 0.783844 8.4632 0.64209 8.44662C1.45975 8.97205 2.41141 9.25094 3.38334 9.24995C4.73553 9.25924 6.03502 8.72616 6.99114 7.76996C7.94727 6.81376 8.48024 5.51422 8.47084 4.16204C8.47084 4.08454 8.46903 4.00745 8.46542 3.93079C8.81561 3.67771 9.11784 3.36418 9.35792 3.00495C9.03168 3.14956 8.68562 3.24451 8.33126 3.28662Z" fill="white"/>
</svg>
