<svg width="16" height="13" viewBox="0 0 16 13" fill="none" xmlns="http://www.w3.org/2000/svg">
<g clip-path="url(#clip0_359_18199)">
<g clip-path="url(#clip1_359_18199)">
<path d="M15.5556 -0.5H0.44445C-0.53739 -0.5 -1.33333 0.335735 -1.33333 1.36667V11.6333C-1.33333 12.6643 -0.53739 13.5 0.44445 13.5H15.5556C16.5374 13.5 17.3333 12.6643 17.3333 11.6333V1.36667C17.3333 0.335735 16.5374 -0.5 15.5556 -0.5Z" fill="#22438B"/>
<path fill-rule="evenodd" clip-rule="evenodd" d="M1.33334 0.43335L-0.467545 0.457616L-0.444433 2.30002L14.6507 12.5928L16.4613 12.5583L16.4276 10.7271L1.33334 0.43335Z" fill="white"/>
<path fill-rule="evenodd" clip-rule="evenodd" d="M0.444446 0.43335L-0.444443 1.36668L15.5556 12.5667L16.4444 11.6334L0.444446 0.43335Z" fill="#C7152A"/>
<path fill-rule="evenodd" clip-rule="evenodd" d="M14.6667 0.43335H16.4445V2.30002C16.4445 2.30002 6.00001 9.20295 1.34934 12.5928C1.29334 12.6339 -0.42666 12.5956 -0.42666 12.5956L-0.564438 10.8214L14.6667 0.43335Z" fill="white"/>
<path fill-rule="evenodd" clip-rule="evenodd" d="M15.5938 0.407227L16.4444 1.36669L0.444446 12.5667L-0.444443 11.6334L15.5938 0.407227Z" fill="#C7152A"/>
<path fill-rule="evenodd" clip-rule="evenodd" d="M5.77778 0.43335H10.2222V4.16668H16.4444V8.83335H10.2222V12.5667H5.77778V8.83335H-0.444443V4.16668H5.77778V0.43335Z" fill="white"/>
<path fill-rule="evenodd" clip-rule="evenodd" d="M6.66667 0.43335H9.33334V5.10002H16.4444V7.90002H9.33334V12.5667H6.66667V7.90002H-0.444443V5.10002H6.66667V0.43335Z" fill="#C7152A"/>
<path d="M15.5556 -0.0333252H0.444448C-0.291932 -0.0333252 -0.888885 0.593476 -0.888885 1.36667V11.6333C-0.888885 12.4065 -0.291932 13.0333 0.444448 13.0333H15.5556C16.2919 13.0333 16.8889 12.4065 16.8889 11.6333V1.36667C16.8889 0.593476 16.2919 -0.0333252 15.5556 -0.0333252Z" stroke="black" stroke-opacity="0.1"/>
</g>
</g>
<defs>
<clipPath id="clip0_359_18199">
<rect width="16" height="12" fill="white" transform="translate(0 0.5)"/>
</clipPath>
<clipPath id="clip1_359_18199">
<rect width="18.6667" height="14" fill="white" transform="translate(-1.33333 -0.5)"/>
</clipPath>
</defs>
</svg>
