<svg width="6" height="5" viewBox="0 0 6 5" fill="none" xmlns="http://www.w3.org/2000/svg">
<path d="M1.09477 2.65786C0.441176 2.65786 0 2.2029 0 1.52888C0 0.922263 0.506536 0.416748 1.19281 0.416748C1.94444 0.416748 2.5 1.02337 2.5 1.95014C2.5 4.05645 0.964052 4.89898 0 5.00008V4.07331C0.653595 3.95535 1.38889 3.29818 1.42157 2.57361C1.38889 2.59046 1.25817 2.65786 1.09477 2.65786Z" fill="#79819A"/>
<path d="M4.4281 2.65786C3.77451 2.65786 3.33333 2.2029 3.33333 1.52888C3.33333 0.922263 3.83987 0.416748 4.52614 0.416748C5.27778 0.416748 5.83333 1.02337 5.83333 1.95014C5.83333 4.05645 4.29738 4.89898 3.33333 5.00008V4.07331C3.98693 3.95535 4.72222 3.29818 4.7549 2.57361C4.72222 2.59046 4.5915 2.65786 4.4281 2.65786Z" fill="#79819A"/>
</svg>
