<svg width="16" height="17" viewBox="0 0 16 17" fill="none" xmlns="http://www.w3.org/2000/svg">
<rect y="0.5" width="16" height="16" rx="8" fill="black"/>
<path d="M8 12.6666C5.69881 12.6666 3.83333 10.8011 3.83333 8.49992C3.83333 6.19873 5.69881 4.33325 8 4.33325C10.3012 4.33325 12.1667 6.19873 12.1667 8.49992C12.1641 10.8001 10.3001 12.6641 8 12.6666ZM5.96666 11.227L5.96458 11.2312C6.91585 11.9438 8.17053 12.1071 9.2725 11.6616C9.11455 10.8121 8.88041 9.97862 8.57291 9.17117C7.86663 9.41742 7.22092 9.8113 6.67875 10.3266C6.41155 10.5796 6.18023 10.8679 5.99124 11.1837L5.98833 11.1883V11.1841L5.98083 11.1987L5.97583 11.207L5.97291 11.2124L5.96583 11.2274L5.96666 11.227ZM9.99125 8.93534C9.7861 8.93563 9.58121 8.94954 9.37791 8.977C9.64341 9.71889 9.85234 10.4798 10.0029 11.2533C10.711 10.7428 11.1923 9.97651 11.3446 9.117C10.9038 8.99538 10.4485 8.93385 9.99125 8.93409V8.93534ZM4.59041 8.48117V8.5045C4.59117 9.30725 4.87521 10.084 5.3925 10.6978C6.06261 9.66263 7.05386 8.87587 8.21416 8.45825L8.26375 8.44409C8.19 8.28117 8.12083 8.13575 8.05166 7.99992C6.93997 8.31163 5.79162 8.47347 4.63708 8.48117H4.59041ZM9.86083 8.22867C10.3778 8.23057 10.8937 8.2777 11.4025 8.3695C11.376 7.66467 11.1295 6.98584 10.6975 6.42825C10.1934 6.99197 9.56603 7.43173 8.86416 7.71325L8.87625 7.70825L8.86333 7.71367C8.93791 7.86909 9.00333 8.0145 9.05791 8.14409C9.07083 8.17492 9.08166 8.20159 9.09166 8.22742L9.10875 8.26909C9.35847 8.24138 9.60957 8.22788 9.86083 8.22867ZM6.49041 5.44867C5.58429 5.89591 4.92341 6.72224 4.68624 7.7045C5.65724 7.6895 6.62357 7.5668 7.5675 7.33867H7.57291H7.57916L7.58333 7.33325L7.60583 7.32784H7.60833L7.625 7.3245H7.62875H7.63166L7.64041 7.322L7.65708 7.31784L7.66666 7.31367L7.67583 7.31117H7.68H7.68416C7.12874 6.33325 6.55375 5.53617 6.49 5.44867H6.49041ZM8 5.09949C7.77191 5.09893 7.54431 5.12056 7.32041 5.16409C7.75692 5.76891 8.15747 6.39889 8.52 7.05075C9.16921 6.81952 9.74823 6.42557 10.2017 5.90659C9.58611 5.386 8.80617 5.10009 8 5.09949Z" fill="#F8F2FC"/>
</svg>
